<?xml version="1.0" encoding="UTF-8"?>
<svg xmlns="http://www.w3.org/2000/svg" xmlns:xlink="http://www.w3.org/1999/xlink" width="24pt" height="24pt" viewBox="0 0 24 24" version="1.1">
<g id="surface2211083">
<path style=" stroke:none;fill-rule:nonzero;fill:rgb(94.509804%,76.862745%,5.882353%);fill-opacity:1;" d="M 12 2.007812 C 8.144531 2.007812 5.007812 5.148438 5.007812 9.003906 C 5.007812 13.488281 10.972656 20.769531 11.230469 21.074219 L 12 22.011719 L 12.769531 21.074219 C 13.027344 20.769531 18.992188 13.488281 18.992188 9.003906 C 18.992188 5.148438 15.855469 2.007812 12 2.007812 Z M 12 4.007812 C 14.753906 4.007812 16.992188 6.25 16.992188 9.003906 C 16.992188 11.707031 13.878906 16.359375 12 18.824219 C 10.121094 16.363281 7.007812 11.714844 7.007812 9.003906 C 7.007812 6.25 9.246094 4.007812 12 4.007812 Z M 12 6.5 C 10.617188 6.5 9.5 7.617188 9.5 9 C 9.5 10.382812 10.617188 11.5 12 11.5 C 13.382812 11.5 14.5 10.382812 14.5 9 C 14.5 7.617188 13.382812 6.5 12 6.5 Z M 12 6.5 "/>
</g>
</svg>
