<?xml version="1.0"?>
<svg xmlns="http://www.w3.org/2000/svg" xmlns:xlink="http://www.w3.org/1999/xlink" version="1.1" viewBox="0 0 192 192" width="24px" height="24px"><g fill="none" fill-rule="nonzero" stroke="none" stroke-width="1" stroke-linecap="butt" stroke-linejoin="miter" stroke-miterlimit="10" stroke-dasharray="" stroke-dashoffset="0" font-family="none" font-weight="none" font-size="none" text-anchor="none" style="mix-blend-mode: normal"><path d="M0,192v-192h192v192z" fill="none"/><g fill="#f1c40f"><path d="M32,48c-8.8,0 -16,7.2 -16,16v64c0,8.8 7.2,16 16,16h89.59375c4,0 8.00312,-1.59687 11.20312,-4.79687l43.20313,-43.20313l-43.20313,-43.20312c-3.2,-3.2 -7.20312,-4.79688 -11.20312,-4.79688zM32,64h89.59375l-0.10938,0.10938l31.92187,31.92187l-31.8125,31.96875h-89.59375zM120,88c-4.416,0 -8,3.584 -8,8c0,4.416 3.584,8 8,8c4.416,0 8,-3.584 8,-8c0,-4.416 -3.584,-8 -8,-8z"/></g></g></svg>
