<?xml version="1.0"?>
<svg xmlns="http://www.w3.org/2000/svg" version="1.1" viewBox="0 0 224 224" width="24px" height="24px">
  <g fill="none" fill-rule="nonzero" stroke="none" stroke-width="1" stroke-linecap="butt" stroke-linejoin="miter"
     stroke-miterlimit="10" stroke-dasharray="" stroke-dashoffset="0" font-family="none" font-weight="none"
     font-size="none" text-anchor="none" style="mix-blend-mode: normal">
    <path d="M0,224v-224h224v224z" fill="none"/>
    <g fill="#f1c40f">
      <path
          d="M104.21615,28l-21.51042,87.5l-3.44531,-12.83333h-35.1276c-3.32858,-5.76529 -9.47565,-9.32156 -16.13281,-9.33333c-10.30932,0 -18.66667,8.35735 -18.66667,18.66667c0,10.30932 8.35735,18.66667 18.66667,18.66667c6.66368,-0.00527 12.8192,-3.56241 16.15104,-9.33333h20.79948l10.02604,37.33333h16.33333l18.83073,-76.59896l16.67969,104.59896h16.47917l13.61718,-65.33333h22.95052c3.32858,5.76529 9.47565,9.32156 16.13282,9.33333c10.30932,0 18.66667,-8.35735 18.66667,-18.66667c0,-10.30932 -8.35735,-18.66667 -18.66667,-18.66667c-6.66368,0.00527 -12.8192,3.56241 -16.15104,9.33333h-38.09896l-5.34115,25.59375l-15.98697,-100.26042z"/>
    </g>
  </g>
</svg>
