<?xml version="1.0"?>
<svg xmlns="http://www.w3.org/2000/svg" xmlns:xlink="http://www.w3.org/1999/xlink" version="1.1" viewBox="0 0 224 224" width="24px" height="24px"><g fill="none" fill-rule="nonzero" stroke="none" stroke-width="1" stroke-linecap="butt" stroke-linejoin="miter" stroke-miterlimit="10" stroke-dasharray="" stroke-dashoffset="0" font-family="none" font-weight="none" font-size="none" text-anchor="none" style="mix-blend-mode: normal"><path d="M0,224v-224h224v224z" fill="none"/><g fill="#f1c40f"><path d="M28,28v168h18.66667v-18.66667h18.66667v-18.66667h-18.66667v-37.33333h74.66667v-18.66667h-74.66667v-37.33333h28v-18.66667h-28v-18.66667zM112,37.33333c-10.29467,0 -18.66667,8.372 -18.66667,18.66667c0,10.29467 8.372,18.66667 18.66667,18.66667c6.87662,0 12.82127,-3.78445 16.05989,-9.33333h67.94011v-18.66667h-67.94011c-3.23863,-5.54889 -9.18327,-9.33333 -16.05989,-9.33333zM158.66667,93.33333c-10.29467,0 -18.66667,8.372 -18.66667,18.66667c0,10.29467 8.372,18.66667 18.66667,18.66667c6.87662,0 12.82127,-3.78444 16.05989,-9.33333h21.27344v-18.66667h-21.27344c-3.23863,-5.54889 -9.18327,-9.33333 -16.05989,-9.33333zM102.66667,149.33333c-10.29467,0 -18.66667,8.372 -18.66667,18.66667c0,10.29467 8.372,18.66667 18.66667,18.66667c6.87662,0 12.82127,-3.78444 16.05989,-9.33333h77.27344v-18.66667h-77.27344c-3.23863,-5.54889 -9.18327,-9.33333 -16.05989,-9.33333z"/></g></g></svg>
