<?xml version="1.0"?>
<svg xmlns="http://www.w3.org/2000/svg" xmlns:xlink="http://www.w3.org/1999/xlink" version="1.1" viewBox="0 0 224 224" width="24px" height="24px"><g fill="none" fill-rule="nonzero" stroke="none" stroke-width="1" stroke-linecap="butt" stroke-linejoin="miter" stroke-miterlimit="10" stroke-dasharray="" stroke-dashoffset="0" font-family="none" font-weight="none" font-size="none" text-anchor="none" style="mix-blend-mode: normal"><path d="M0,224v-224h224v224z" fill="none"/><g fill="#f1c40f"><path d="M37.33333,28c-3.36594,-0.0476 -6.49676,1.72084 -8.19362,4.62815c-1.69686,2.90731 -1.69686,6.50306 0,9.41037c1.69686,2.90731 4.82768,4.67575 8.19362,4.62815h149.33333c3.36594,0.0476 6.49676,-1.72084 8.19362,-4.62815c1.69686,-2.90731 1.69686,-6.50306 0,-9.41037c-1.69686,-2.90731 -4.82768,-4.67575 -8.19362,-4.62815zM46.66667,65.33333c-10.29467,0 -18.66667,8.372 -18.66667,18.66667v18.66667c0,10.29467 8.372,18.66667 18.66667,18.66667h18.66667c10.29467,0 18.66667,-8.372 18.66667,-18.66667v-18.66667c0,-10.29467 -8.372,-18.66667 -18.66667,-18.66667zM112,65.33333c-3.36594,-0.0476 -6.49676,1.72084 -8.19362,4.62815c-1.69686,2.90731 -1.69686,6.50306 0,9.41037c1.69686,2.90731 4.82768,4.67575 8.19362,4.62815h74.66667c3.36594,0.0476 6.49676,-1.72084 8.19362,-4.62815c1.69686,-2.90731 1.69686,-6.50306 0,-9.41037c-1.69686,-2.90731 -4.82768,-4.67575 -8.19362,-4.62815zM112,102.66667c-3.36594,-0.0476 -6.49676,1.72084 -8.19362,4.62815c-1.69686,2.90731 -1.69686,6.50306 0,9.41037c1.69686,2.90731 4.82768,4.67575 8.19362,4.62815h46.66667c3.36594,0.0476 6.49676,-1.72084 8.19362,-4.62815c1.69686,-2.90731 1.69686,-6.50306 0,-9.41037c-1.69686,-2.90731 -4.82768,-4.67575 -8.19362,-4.62815zM46.66667,140c-10.29467,0 -18.66667,8.372 -18.66667,18.66667v18.66667c0,10.29467 8.372,18.66667 18.66667,18.66667h18.66667c10.29467,0 18.66667,-8.372 18.66667,-18.66667v-18.66667c0,-10.29467 -8.372,-18.66667 -18.66667,-18.66667zM112,140c-3.36594,-0.0476 -6.49676,1.72084 -8.19362,4.62815c-1.69686,2.90731 -1.69686,6.50306 0,9.41037c1.69686,2.90731 4.82768,4.67575 8.19362,4.62815h74.66667c3.36594,0.0476 6.49676,-1.72084 8.19362,-4.62815c1.69686,-2.90731 1.69686,-6.50306 0,-9.41037c-1.69686,-2.90731 -4.82768,-4.67575 -8.19362,-4.62815zM112,177.33333c-3.36594,-0.0476 -6.49676,1.72084 -8.19362,4.62815c-1.69686,2.90731 -1.69686,6.50306 0,9.41037c1.69686,2.90731 4.82768,4.67575 8.19362,4.62815h46.66667c3.36594,0.0476 6.49676,-1.72084 8.19362,-4.62815c1.69686,-2.90731 1.69686,-6.50306 0,-9.41037c-1.69686,-2.90731 -4.82768,-4.67575 -8.19362,-4.62815z"/></g></g></svg>
