<?xml version="1.0"?>
<svg xmlns="http://www.w3.org/2000/svg" xmlns:xlink="http://www.w3.org/1999/xlink" version="1.1" viewBox="0 0 192 192" width="24px" height="24px"><g fill="none" fill-rule="nonzero" stroke="none" stroke-width="1" stroke-linecap="butt" stroke-linejoin="miter" stroke-miterlimit="10" stroke-dasharray="" stroke-dashoffset="0" font-family="none" font-weight="none" font-size="none" text-anchor="none" style="mix-blend-mode: normal"><path d="M0,192v-192h192v192z" fill="none" stroke="none"/><g id="original-icon" fill="#f1c40f" stroke="none" opacity="0" visibility="hidden"><path d="M96,24l-16,144h16l16,-144zM45.65625,50.34375l-45.65625,45.65625l45.65625,45.65625l11.3125,-11.3125l-34.34375,-34.34375l34.34375,-34.34375zM146.34375,50.34375l-11.3125,11.3125l34.34375,34.34375l-34.34375,34.34375l11.3125,11.3125l45.65625,-45.65625z"/></g><g id="subtracted-icon" fill="#f1c40f" stroke="none"><path d="M112,24l-14.40867,129.67801c-0.38528,1.37495 -0.59133,2.82455 -0.59133,4.32199v1l-1,9h-16l16,-144zM56.96875,61.65625l-34.34375,34.34375l34.34375,34.34375l-11.3125,11.3125l-45.65625,-45.65625l45.65625,-45.65625zM192,96l-45.65625,45.65625l-11.3125,-11.3125l34.34375,-34.34375l-34.34375,-34.34375l11.3125,-11.3125z"/></g><g stroke="none"><g id="Filled_3_" fill="#e74c3c"><path d="M113,158h80v16h-80z"/></g><g id="Filled_3_" fill="#000000" opacity="0"><path d="M209,158v16c0,8.832 -7.168,16 -16,16h-80c-8.832,0 -16,-7.168 -16,-16v-16c0,-8.832 7.168,-16 16,-16h80c8.832,0 16,7.168 16,16z"/></g></g><path d="M113,174v-16h80v16z" id="overlay-drag" fill="#ff0000" stroke="none" opacity="0"/></g></svg>
