<?xml version="1.0"?>
<svg xmlns="http://www.w3.org/2000/svg" xmlns:xlink="http://www.w3.org/1999/xlink" version="1.1" viewBox="0 0 192 192" width="24px" height="24px"><g fill="none" fill-rule="nonzero" stroke="none" stroke-width="1" stroke-linecap="butt" stroke-linejoin="miter" stroke-miterlimit="10" stroke-dasharray="" stroke-dashoffset="0" font-family="none" font-weight="none" font-size="none" text-anchor="none" style="mix-blend-mode: normal"><path d="M0,192v-192h192v192z" fill="none" stroke="none"/><g id="original-icon" fill="#f1c40f" stroke="none" opacity="0" visibility="hidden"><path d="M96,24l-16,144h16l16,-144zM45.65625,50.34375l-45.65625,45.65625l45.65625,45.65625l11.3125,-11.3125l-34.34375,-34.34375l34.34375,-34.34375zM146.34375,50.34375l-11.3125,11.3125l34.34375,34.34375l-34.34375,34.34375l11.3125,11.3125l45.65625,-45.65625z"/></g><g id="subtracted-icon" fill="#f1c40f" stroke="none"><path d="M112,24l-12.90954,116.18584c-0.70401,1.80241 -1.09046,3.76343 -1.09046,5.81416v4l-2,18h-16l16,-144zM56.96875,61.65625l-34.34375,34.34375l34.34375,34.34375l-11.3125,11.3125l-45.65625,-45.65625l45.65625,-45.65625zM192,96l-14.40584,14.40584c-1.28264,-5.5812 -5.48725,-10.05075 -10.91508,-11.70992l2.69592,-2.69592l-34.34375,-34.34375l11.3125,-11.3125z"/></g><g stroke="none"><g id="Filled_3_" fill="#2ecc71"><path d="M194,162h-32v32h-16v-32h-32v-16h32v-32h16v32h32z"/></g><g id="Filled_3_" fill="#000000" opacity="0"><path d="M210,146v16c0,8.832 -7.168,16 -16,16h-16v16c0,8.832 -7.168,16 -16,16h-16c-8.832,0 -16,-7.168 -16,-16v-16h-16c-8.832,0 -16,-7.168 -16,-16v-16c0,-8.832 7.168,-16 16,-16h16v-16c0,-8.832 7.168,-16 16,-16h16c8.832,0 16,7.168 16,16v16h16c8.832,0 16,7.168 16,16z"/></g></g><path d="M114,194v-80h80v80z" id="overlay-drag" fill="#ff0000" stroke="none" opacity="0"/></g></svg>
