<?xml version="1.0" encoding="UTF-8"?>
<svg xmlns="http://www.w3.org/2000/svg" xmlns:xlink="http://www.w3.org/1999/xlink" width="24pt" height="24pt" viewBox="0 0 24 24" version="1.1">
<g id="surface4837419">
<path style=" stroke:none;fill-rule:nonzero;fill:rgb(94.509804%,76.862745%,5.882353%);fill-opacity:1;" d="M 11 0 L 11 2.058594 C 7.335938 2.421875 4.253906 4.761719 2.835938 8 L 5.078125 8 C 6.304688 5.886719 8.46875 4.386719 11 4.070312 L 11 6 L 12.933594 4.0625 C 12.957031 4.066406 12.980469 4.066406 13 4.070312 L 13 4 L 14 3 Z M 16 2.839844 L 16 5.078125 C 18.113281 6.304688 19.613281 8.46875 19.933594 11 L 18 11 L 19.9375 12.933594 C 19.933594 12.957031 19.933594 12.980469 19.933594 13 L 20 13 L 21 14 L 24 11 L 21.945312 11 C 21.578125 7.335938 19.238281 4.253906 16 2.835938 Z M 3 10 L 0 13 L 2.058594 13 C 2.421875 16.664062 4.761719 19.746094 8 21.160156 L 8 18.921875 C 5.886719 17.695312 4.386719 15.53125 4.070312 13 L 6 13 L 4.0625 11.066406 C 4.066406 11.042969 4.066406 11.019531 4.070312 11 L 4 11 Z M 18.921875 16 C 17.695312 18.113281 15.53125 19.613281 13 19.933594 L 13 18 L 11.066406 19.9375 C 11.042969 19.933594 11.019531 19.933594 11 19.933594 L 11 20 L 10 21 L 13 24 L 13 21.945312 C 16.664062 21.578125 19.746094 19.238281 21.160156 16 Z M 18.921875 16 "/>
</g>
</svg>
