<?xml version="1.0"?>
<svg xmlns="http://www.w3.org/2000/svg" xmlns:xlink="http://www.w3.org/1999/xlink" version="1.1" viewBox="0 0 192 192" width="24px" height="24px"><g fill="none" fill-rule="nonzero" stroke="none" stroke-width="1" stroke-linecap="butt" stroke-linejoin="miter" stroke-miterlimit="10" stroke-dasharray="" stroke-dashoffset="0" font-family="none" font-weight="none" font-size="none" text-anchor="none" style="mix-blend-mode: normal"><path d="M0,192v-192h192v192z" fill="none"/><g fill="#f1c40f"><path d="M32,24c-8.8,0 -15.92188,7.2 -15.92188,16l-0.0625,95.98438c0,8.84 7.16,16.01562 16,16.01562h15.98438v32l32,-32h80c8.8,0 16,-7.2 16,-16v-96c0,-8.8 -7.2,-16 -16,-16zM32,40h128v96h-112h-15.98438zM88,56l-32,32l32,32v-24h8c0,0 6.32998,0.11032 12.42187,3.15625c6.09189,3.04594 11.57813,7.51042 11.57813,20.84375h16c0,-18.66666 -10.51376,-30.20219 -20.42187,-35.15625c-9.90811,-4.95406 -19.57813,-4.84375 -19.57813,-4.84375h-8z"/></g></g></svg>
